<svg xmlns="http://www.w3.org/2000/svg" viewBox="0 0 36 36" id="Email"><path d="M18 0C8.065 0 0 8.065 0 18s8.065 18 18 18 18-8.065 18-18S27.935 0 18 0zm0 .969C27.41.969 35.031 8.59 35.031 18c0 9.41-7.621 17.031-17.031 17.031C8.59 35.031.969 27.41.969 18 .969 8.59 8.59.969 18 .969zM17.531 13l-9.093.031a.5.5 0 0 0-.094 0 .5.5 0 0 0-.094.031.5.5 0 0 0-.094.063.5.5 0 0 0-.062.063.5.5 0 0 0-.063.062.5.5 0 0 0-.094.281v11.375a.5.5 0 0 0 .5.5h13.126a4.329 4.329 0 0 0 1.906.813c.205.04.412.06.625.062h.062c.23 0 .436-.05.657-.093a4.368 4.368 0 0 0 1.937-.813.5.5 0 0 0 .313-.25c.726-.65 1.26-1.532 1.437-2.531.048-.251.062-.49.063-.75a4.14 4.14 0 0 0-.063-.75 4.403 4.403 0 0 0-1.375-2.5v-5a.5.5 0 0 0-.5-.594h-9.094zm-7.343 1.031h14.687l-7.344 4.594-7.343-4.594zm15.937.375v3.5c-.599-.304-1.254-.5-1.969-.5a4.453 4.453 0 0 0-4.437 4.438c0 .96.322 1.835.843 2.562H8.938v-9.968l8.344 5.187a.5.5 0 0 0 .532 0l8.312-5.219zm-1.969 4c.859 0 1.62.323 2.219.844.142.123.288.263.406.406.036.043.06.08.094.125.113.152.226.302.313.469.025.049.04.106.062.156.09.199.167.412.219.625.005.021.026.042.031.063.054.243.062.495.063.75 0 .253-.009.507-.063.75-.006.028-.024.034-.031.062a3.465 3.465 0 0 1-.219.594c-.025.055-.066.103-.094.156-.085.164-.17.352-.281.5-.034.045-.058.081-.094.125a3.615 3.615 0 0 1-.406.407c-.063.055-.12.106-.188.156-.089.067-.186.13-.28.187-.084.05-.164.083-.25.125-.098.048-.181.086-.282.125-.106.04-.233.064-.344.094-.083.023-.165.078-.25.094a3.3 3.3 0 0 1-.625.062h-.031c-.214 0-.422-.024-.625-.062-.081-.016-.139-.042-.219-.063-.117-.03-.232-.082-.343-.125-.1-.039-.217-.077-.313-.125-.082-.04-.141-.078-.219-.125a3.748 3.748 0 0 1-.312-.218c-.826-.626-1.375-1.596-1.375-2.72a3.438 3.438 0 0 1 3.437-3.437zm-.062 1.157a.5.5 0 0 0-.438.53v1.25h-1.281a.5.5 0 1 0 0 1h1.281v1.25a.5.5 0 1 0 1 0v-1.25h1.25a.5.5 0 1 0 0-1h-1.25v-1.25a.5.5 0 0 0-.531-.53.5.5 0 0 0-.031 0z" color="#000" font-family="Sans" font-weight="400" overflow="visible" style="text-indent:0;text-align:start;line-height:normal;text-transform:none;block-progression:tb;marker:none;-inkscape-font-specification:Sans" fill="#d9dddd" class="color000000 svgShape"></path></svg>